# xmcd
#
# Track frame offsets: 
#        187
#        10115
#        29382
#        48255
#        67395
#        92457
#        115530
#        134115
#        151197
#        170570
#        187087
#        204287
#        226097
#        243842
#        260747
#        290642
#        307630
#        325910
#
# Disc length: 4560 seconds
#
# Revision: 3
# Processed by: cddbd v1.5.2PL0 Copyright (c) Steve Scherf et al.
# Submitted via: ExactAudioCopy v1.3
#
DISCID=f311ce12
DTITLE=Hammer - The Funky Headhunter
DYEAR=1994
DGENRE=R&B
TTITLE0=Intro
TTITLE1=Daktown
TTITLE2=It S All Good
TTITLE3=Somethin For The O.G. S
TTITLE4=Don T Stop
TTITLE5=Pumps And A Bump
TTITLE6=One Mo Time
TTITLE7=Clap Yo Hands
TTITLE8=Brea  M Off Somethin Propa
TTITLE9=Don T Fight The Feelin
TTITLE10=Goldie In Me
TTITLE11=Sleepin On A Master Plan
TTITLE12=It S All That
TTITLE13=The Funky Headhunter
TTITLE14=Pumpe And A Bump Reprize (Bump Teddy Bump)
TTITLE15=Help Lord (Won T You Come)
TTITLE16=Do It Like This
TTITLE17=Haartbreaka (Is What They Call Me)
EXTD=
EXTT0=
EXTT1=
EXTT2=
EXTT3=
EXTT4=
EXTT5=
EXTT6=
EXTT7=
EXTT8=
EXTT9=
EXTT10=
EXTT11=
EXTT12=
EXTT13=
EXTT14=
EXTT15=
EXTT16=
EXTT17=
PLAYORDER=
